<svg viewBox="0 0 270.93 270.93" xmlns="http://www.w3.org/2000/svg">
    <defs>
        <filter id="a" x="0" y="0" width="1" height="1" color-interpolation-filters="sRGB">
            <feGaussianBlur stdDeviation=".014"/>
        </filter>
    </defs>
    <style>
        .samekh {
            fill: #1a1a1a;
            stroke-width: 0;
        }
        .lamed {
            fill: #b3b3b3;
            stroke-width: 0;
        }
        @media (prefers-color-scheme: dark) {
            .samekh {
                fill: #cccccc;
            }
            .lamed {
                fill: #efefef;
            }
        }
    </style>
    <g filter="url(#a)">
        <path class="lamed" d="M78.49 220.152c-8.622-.003-16.32.92-23.13 2.321-9.905 2.039-16.192.575-16.123 6.292s5.967 15.785 13.306 17.268c7.339 1.484 15.507-3.087 23.928-6.196 8.421-3.11 17.095-4.756 25.358-5.576 8.263-.82 21.548.014 31.702 1.597 6.232.971 8.573 1.586 16.176 3.404l-.67-11.937c-7.275-1.662-6.85-1.985-14.79-3.506-11.824-2.264-32.602-3.329-44.871-3.921-3.834-.185-6.966.255-10.885.254z"/>
        <path class="samekh" d="M78.38 94.464q0-5.426-4.418-10.348-1.163-1.357-3.178-3.1-2.016-1.745-4.845-3.954 4.96-3.023 7.402-5.465 3.876-3.837 3.876-8.139 0-3.798-2.868-7.17-3.992-4.69-11.82-4.69-6.202 0-10.504 3.489-4.496 3.643-4.496 9.534 0 4.961 3.489 9.07.775.93 2.48 2.48t4.263 3.798q-10.968 7.597-10.968 15 0 5.076 4.07 9.03 4.418 4.38 11.666 4.38 8.488 0 12.712-5.078 3.14-3.798 3.14-8.837zm-6.976-31.51q0 4.108-2.093 7.248-1.124 1.511-5.232 5.387-6.318-5.039-7.907-6.821-2.79-3.217-2.79-6.822 0-3.682 2.674-5.813 2.713-2.17 6.55-2.17 8.798 0 8.798 8.991zm1.279 34.804q0 3.914-2.713 6.124-2.752 2.286-6.86 2.286-4.38 0-7.287-2.984-2.829-3.14-2.829-8.372 0-7.635 6.666-13.41 2.132 1.783 4.225 3.527 2.132 1.744 4.147 3.605 2.403 2.286 3.527 4.65 1.124 2.365 1.124 4.574z" transform="translate(-148.26 -227.15) scale(4.5333)" aria-label="8"/>
        <path class="lamed" d="M189.44 29.028c-.56 7.124-1.12 14.248-3.414 22.061-2.293 7.813-6.32 16.314-11.319 24.095-4.999 7.782-10.97 14.844-16.389 20.732-5.419 5.888-10.285 10.6-19.394 17.775-9.11 7.176-22.46 16.814-34.355 26.48-11.894 9.666-22.329 19.358-32.45 30.923s-19.925 25.003-26.04 36.293c-6.117 11.29-8.544 20.431-5.862 24.172s10.475 2.083 15.203-2.015 6.392-10.636 8.655-16.994c2.262-6.358 5.124-12.536 9.89-19.756 4.766-7.221 11.437-15.485 18.676-22.937s15.044-14.091 25.582-22.188 23.809-17.651 37.777-27.834 28.634-20.995 40.096-32.295c11.462-11.3 19.72-23.088 18.078-32.922-1.643-9.834-13.188-17.711-24.733-25.59z"/>
        <path class="lamed" d="M127.49 224.27c-1.755 1.683-.925 5.949 1.006 8.43 1.932 2.48 4.965 3.177 8.628 3.935 3.663.758 7.955 1.577 12.468 2.562 4.513.985 9.247 2.135 13.552 3.174 4.305 1.038 8.181 1.966 12.483 2.924 4.302.959 9.028 1.95 13.775 2.783 4.748.833 9.516 1.51 14.208 1.881 4.692.372 9.308.439 14.165-.557 4.857-.995 9.955-3.053 13.124-6.133 3.169-3.08 4.409-7.18 4.928-10.994s.316-7.338-.263-9.745c-.58-2.407-1.537-3.697-2.494-4.986-4.172 2.616-8.344 5.233-11.816 7.05s-6.244 2.836-9.632 3.76-7.393 1.758-12.888 2.287c-5.496.53-12.483.757-19.428.427-6.946-.33-13.848-1.216-20.738-2.423-6.89-1.206-13.766-2.732-19.374-3.946s-9.948-2.112-11.703-.43z"/>
    </g>
</svg>
